<svg width="35" height="35" viewBox="0 0 35 35" fill="none" xmlns="http://www.w3.org/2000/svg">
<path fill-rule="evenodd" clip-rule="evenodd" d="M27.5514 30.9002L30.9445 27.507L29.7495 23.1655L30.2701 21.922L34.1992 19.705V14.9066L30.2813 12.6803L29.7694 11.439L30.9794 7.09527L27.5839 3.70462L23.2419 4.89933L22.0013 4.37914L19.784 0.449707H14.9856L12.7593 4.36761L11.5184 4.87941L7.17527 3.66786L3.78499 7.05813L4.97989 11.4008L4.45971 12.6414L0.530273 14.8587V19.6557L4.44465 21.887L4.957 23.1293L3.74714 27.4724L7.1387 30.8639L11.4814 29.669L12.7222 30.1893L14.9394 34.1171H19.7366L21.9663 30.2026L23.2083 29.6904L27.5514 30.9002ZM27.8522 19.7719L26.518 22.9584L27.5209 26.602L26.6511 27.4719L23.0152 26.459L19.8272 27.7738L17.9576 31.0562H16.7266L14.8725 27.7717L11.6894 26.4371L8.04388 27.4402L7.17547 26.5718L8.18833 22.9359L6.87366 19.7482L3.59122 17.8772V16.6459L6.87715 14.7918L8.21181 11.6086L7.20872 7.96307L8.07532 7.09646L11.7112 8.11073L14.9002 6.7955L16.7669 3.51041H17.9968L19.8509 6.79634L23.0341 8.131L26.6804 7.12771L27.551 7.99703L26.5383 11.6322L27.8534 14.821L31.1385 16.6877V17.9175L27.8522 19.7719ZM17.3649 23.4057C13.984 23.4057 11.2432 20.6649 11.2432 17.2841C11.2432 13.9032 13.984 11.1624 17.3649 11.1624C20.7457 11.1624 23.4865 13.9032 23.4865 17.2841C23.4865 20.6649 20.7457 23.4057 17.3649 23.4057ZM20.4257 17.2841C20.4257 18.9745 19.0553 20.3449 17.3649 20.3449C15.6744 20.3449 14.3041 18.9745 14.3041 17.2841C14.3041 15.5936 15.6744 14.2232 17.3649 14.2232C19.0553 14.2232 20.4257 15.5936 20.4257 17.2841Z" fill="#979797"/>
</svg>
