<svg width="37" height="38" viewBox="0 0 37 38" fill="none" xmlns="http://www.w3.org/2000/svg">
<path d="M14.7529 5.88687C13.8123 5.34375 12.9256 4.92312 12.0492 4.61117C13.9865 3.75969 16.1182 3.27538 18.3649 3.27538C20.4036 3.27538 22.3485 3.67365 24.1406 4.38005C24.8751 5.83597 25.2014 7.31083 25.2014 9.36299C25.2014 12.8495 23.1053 16.0402 20.4651 17.202C20.7465 15.6195 20.615 13.899 20.0107 12.2014L20.0106 12.2013C19.0761 9.57754 17.1618 7.27738 14.7529 5.88687ZM5.12059 15.6187C4.17875 16.163 3.37016 16.7214 2.66125 17.3249C3.13995 13.0505 5.32216 9.29008 8.52103 6.73655C10.1461 6.83079 11.5835 7.2856 13.355 8.30836L13.355 8.30839C15.1956 9.37044 16.6629 11.1325 17.3761 13.1379L17.3762 13.1381C17.7657 14.2315 17.8798 15.3135 17.7696 16.3116C14.5734 13.6312 9.31137 13.198 5.12064 15.6187L5.12059 15.6187ZM21.9771 32.3026C22.9177 32.8457 23.8044 33.2663 24.6808 33.5783C22.7435 34.4298 20.6118 34.9141 18.3651 34.9141C16.3264 34.9141 14.3815 34.5158 12.5894 33.8094C11.8549 32.3535 11.5286 30.8786 11.5286 28.8265C11.5286 25.34 13.6247 22.1493 16.2649 20.9875C15.9835 22.5701 16.115 24.2905 16.7193 25.9881L16.7194 25.9881C17.6539 28.6119 19.5683 30.9121 21.9771 32.3026ZM31.6092 22.5707C32.551 22.0264 33.3596 21.4681 34.0686 20.8645C33.5901 25.139 31.4081 28.8993 28.2091 31.4528C26.584 31.3586 25.1465 30.9039 23.3749 29.8811L23.3749 29.8811C21.5343 28.819 20.067 27.057 19.3538 25.0515L19.3537 25.0514C18.9686 23.9702 18.8535 22.9002 18.9576 21.911C20.7252 23.3852 23.1205 24.1691 25.6127 24.1691C27.6362 24.1691 29.7309 23.6543 31.609 22.5708L31.6092 22.5707ZM18.3651 0.479736C8.10057 0.479736 -0.25 8.83031 -0.25 19.0948C-0.25 29.3593 8.10057 37.7099 18.3651 37.7099C28.6295 37.7099 36.9801 29.3593 36.9801 19.0948C36.9801 8.83031 28.6294 0.479736 18.3651 0.479736ZM30.2113 20.1493C27.1964 21.89 23.3918 21.6732 21.0649 19.9744C24.9884 18.5499 27.997 14.2056 27.997 9.36287C27.997 8.27075 27.9179 7.28737 27.7485 6.36825C31.0493 8.81016 33.356 12.5082 33.9908 16.7465C33.0982 18.1069 31.9846 19.1251 30.2113 20.1493ZM2.73924 21.443C3.63182 20.0826 4.74539 19.0643 6.51872 18.0401C9.53279 16.2994 13.3372 16.5163 15.6648 18.2153C11.7417 19.6397 8.73299 23.9841 8.73299 28.8265C8.73299 29.9186 8.81209 30.902 8.98154 31.8211C5.68068 29.3794 3.37403 25.6813 2.73924 21.443Z" fill="#979797" stroke="#979797" stroke-width="0.5"/>
</svg>
