<svg width="35" height="35" viewBox="0 0 35 35" fill="none" xmlns="http://www.w3.org/2000/svg">
<path fill-rule="evenodd" clip-rule="evenodd" d="M17.3647 34.6592C8.06732 34.6592 0.530273 27.1221 0.530273 17.8247C0.530273 8.52728 8.06732 0.990234 17.3647 0.990234C26.6621 0.990234 34.1992 8.52728 34.1992 17.8247C34.1992 27.1221 26.6621 34.6592 17.3647 34.6592ZM28.6891 25.6673C30.2335 23.4416 31.1385 20.7388 31.1385 17.8246C31.1385 10.2176 24.9718 4.05093 17.3649 4.05093C9.75789 4.05093 3.59122 10.2176 3.59122 17.8246C3.59122 20.7388 4.49629 23.4417 6.04069 25.6675C7.76305 23.3923 11.8105 22.4158 17.365 22.4158C22.9194 22.4158 26.9667 23.3923 28.6891 25.6673ZM26.4933 28.1391C26.0453 26.5285 22.8275 25.4766 17.365 25.4766C11.9023 25.4766 8.68441 26.5286 8.23658 28.1392C10.6668 30.2916 13.8632 31.5982 17.3649 31.5982C20.8666 31.5982 24.0631 30.2915 26.4933 28.1391ZM17.3649 8.64215C13.6599 8.64215 11.2432 11.3292 11.2432 14.7638C11.2432 20.009 13.9381 22.4158 17.3649 22.4158C20.7594 22.4158 23.4865 20.089 23.4865 15.0699C23.4865 11.5829 21.0596 8.64215 17.3649 8.64215ZM14.3041 14.7638C14.3041 18.2367 15.5562 19.355 17.3649 19.355C19.1672 19.355 20.4257 18.2812 20.4257 15.0699C20.4257 13.1575 19.2253 11.703 17.3649 11.703C15.427 11.703 14.3041 12.9515 14.3041 14.7638Z" fill="#979797"/>
</svg>
