<?xml version="1.0" standalone="no"?>
<!DOCTYPE svg PUBLIC "-//W3C//DTD SVG 20010904//EN"
 "http://www.w3.org/TR/2001/REC-SVG-20010904/DTD/svg10.dtd">
<svg version="1.0" xmlns="http://www.w3.org/2000/svg"
 width="679.000000pt" height="118.000000pt" viewBox="0 0 679.000000 118.000000"
 preserveAspectRatio="xMidYMid meet">

<g transform="translate(0.000000,118.000000) scale(0.100000,-0.100000)"
fill="#000000" stroke="none">
<path d="M4739 1042 l41 -48 0 -133 c0 -139 10 -180 49 -201 13 -6 213 -10
575 -10 l556 0 32 29 33 29 3 133 c4 158 0 189 -35 223 l-26 26 -634 0 -634 0
40 -48z"/>
<path d="M4583 1020 c-13 -5 -32 -24 -43 -42 -68 -111 66 -235 138 -128 55 81
-13 202 -95 170z"/>
</g>
</svg>
